<?xml version="1.0" encoding="UTF-8" standalone="no"?>
<!-- Created with Inkscape (http://www.inkscape.org/) -->

<svg
   version="1.1"
   id="svg1"
   width="492"
   height="492"
   viewBox="0 0 492 492"
   sodipodi:docname="stitch.svg"
   inkscape:version="1.4.2 (ebf0e940d0, 2025-05-08)"
   xmlns:inkscape="http://www.inkscape.org/namespaces/inkscape"
   xmlns:sodipodi="http://sodipodi.sourceforge.net/DTD/sodipodi-0.dtd"
   xmlns="http://www.w3.org/2000/svg"
   xmlns:svg="http://www.w3.org/2000/svg">
  <defs
     id="defs1">
    <inkscape:path-effect
       effect="fillet_chamfer"
       id="path-effect1"
       is_visible="true"
       lpeversion="1"
       nodesatellites_param="F,0,0,1,0,0,0,1 @ F,0,0,1,0,82.181474,0,1 @ F,0,0,1,0,0,0,1 @ F,0,0,1,0,0,0,1 @ F,0,0,1,0,0,0,1 @ F,0,0,1,0,0,0,1 @ F,0,0,1,0,0,0,1 @ F,0,0,1,0,0,0,1 @ F,0,0,1,0,89.336044,0,1 @ F,0,0,1,0,0,0,1 @ F,0,0,1,0,0,0,1"
       radius="0"
       unit="px"
       method="auto"
       mode="F"
       chamfer_steps="1"
       flexible="false"
       use_knot_distance="true"
       apply_no_radius="true"
       apply_with_radius="true"
       only_selected="false"
       hide_knots="false" />
  </defs>
  <sodipodi:namedview
     id="namedview1"
     pagecolor="#505050"
     bordercolor="#eeeeee"
     borderopacity="1"
     inkscape:showpageshadow="0"
     inkscape:pageopacity="0"
     inkscape:pagecheckerboard="0"
     inkscape:deskcolor="#505050"
     inkscape:zoom="1"
     inkscape:cx="278"
     inkscape:cy="226"
     inkscape:window-width="1920"
     inkscape:window-height="1003"
     inkscape:window-x="0"
     inkscape:window-y="0"
     inkscape:window-maximized="1"
     inkscape:current-layer="svg1">
    <inkscape:page
       x="0"
       y="0"
       inkscape:label="1"
       id="page1"
       width="492"
       height="492"
       margin="0"
       bleed="0" />
  </sodipodi:namedview>
  <g
     id="g1"
     inkscape:groupmode="layer"
     inkscape:label="1">
    <path
       id="path1"
       d="m 2992,3309 c -58.85,-58.85 -113.86,-141 -166.08,-248 -87.5974,-248.942 -113.4669,-482.9008 -334.92,-671 -3.0396,-2.3465 -20.35,14 -36.56,31 -87.36,91.62 -217.44,166.63 -371.44,214.19 -89.3946,34.954 -159.9635,52.2914 -231.77,123.81 -70.4,72 -155.3,116.21 -200.23,104.27 -24,-6.38 -29.7744,-40.7285 -6,-49.54 49.4495,-34.7652 94.8939,-62.5099 138.02,-106.73 70.09,-73 107.8037,-85.3244 199.98,-126.81 82.9846,-28.0969 177.9949,-50.8269 249,-91.81 91.106,-47.9987 220.39,-181.38 277.28,-282.38 82.647,-146.7194 165.3822,-426.7547 160.3,-601 l -0.58,-20 c 7.6122,-117.4675 -219.9814,-353.2626 -402,-435.14 C 1835.3377,985.20532 1285.2799,1045.9423 965,1316.75 860.13789,1418.5946 799.55651,1555.4155 863.191,1735 c 13.825,39 27.297,98.79 30.426,135 8.48469,98.1915 39.65052,236.0152 133.583,381 62.21,96 181.85,206.3 272.8,251.49 88.73,44.08 225,84.56 316,93.87 36,3.68 67.18,10.21 69.89,14.64 12.17,19.92 -26.89,78.29 -68.89,102.95 -44,25.83 -119.83,35.67 -131.43,17.05 -8.9,-14.26 4.43,-41 20.43,-41 8,0 13.3203,-4.3306 14,-10 2.6304,-21.9404 -16.6717,-28.8175 -33,-30 -79.23,0 -285,-96.2 -376,-175.78 -34,-29.73 -65.16,-54.22 -69,-54.22 -95.24747,14.1087 -192.726,276.2234 -212,333 -12.27555,36.1608 -22.453,63.5 -50,136.5 -16.89211,40.1059 -72.949,180.5 -96.887,228.5 -86.34322,173.1306 -374.60763,484.0741 -561.54968,-17.35 -39.143524,-142.8543 -40.001655,-146.3953 -43.859304,-166 -37.8242,-185 -21.5469,-471.6 34.414304,-606 36.42001,-101.8453 72.56879,-198.0972 147.60468,-276.65 253.34354,-315.6319 519.642,-281.1732 504.843,-353 -26.02773,-82.8447 -13.53076,-117.1581 0.434,-186.5 3.863,-20.69 15.516,-57 26,-81 10.484,-24 43.10788,-81.9579 55.16,-98.5 59.871,-84.86 173.84,-165.52 314.84,-222.83 44,-17.88 56.16,-27.5 53.32,-42.17 -6.3885,-27.9589 -74.46,-118.5 -98.32,-166.5 -23.86,-48 -138.71277,-336.87102 -76,-324.355 57.6711,14.81939 119.4018,385.94883 282,472.855 185.6171,-78.9804 315.4345,-68.30706 499.5,-66 29.9972,0.23784 165.7904,11.82562 318.5,52 52,13.68 104.05,27.26 115,30 14.29,3.57 34,-8.37 69,-41.81 91.1274,-87.05708 426.2755,-157.30278 441.77,-84.19 17.58,83 61.11,123.6 109.23,101.87 34.4,-15.53 32,-31.34 -11,-72.452 -20,-19.121 -40.56,-42.863 -46.27,-53.418 -9.5308,-17.6496 -31.2258,-68.15484 -9.23,-131 1.94,-5.531 7.52,-20.5 12.5,-33.5 6.88,-17.969 4.06,-31.5 -12,-57.5 -19.4194,-31.45518 -150.2806,-219.62867 -469,-159 -286.4047,75.20882 -405.4436,125.25673 -691,35 C 788.02667,297.86941 917.46056,591.50944 469,770 411.352,770 508,629.105 628,538.207 662,512.453 732.25791,468.51754 748.5,460.5 815.68806,424.88105 982,371.629 1167,369.484 c 258.5114,-3.00022 498.6361,129.52532 652.1922,146.23031 30.5473,5.06489 226.5045,33.14588 355.5045,-18.74512 150.3081,-60.46496 343.95,-38.79264 386.8033,-32.96919 28,3.805 66.3812,16.09802 86,21.5 98.0132,26.98764 109.9465,31.84323 204.44,162.5 36.6469,38.81705 79.86,64.77881 137.56,83 18.3647,5.79942 36.58,31.5 45.5,48.5 38.8201,53.10441 38.6226,92.82374 16.77,161.5 -5.8,14 -21.38,34.707 -33.77,44.863 -95.42,98.7976 -67.477,134.6395 -12.66,234.137 105.6256,144.3534 168.5087,208.58 275.41,215.7925 72.0955,5.9723 146.3431,-12.7173 183.83,-36.7925 81.5278,-51.8669 95.0997,-89.9164 113.7242,-147.9064 C 3710.361,839.91563 3127.1127,596.51043 3373,570 c 33.6926,-3.63258 44.64,22 89.68,70 140.2525,149.48916 272.1287,442.4536 161.32,668 -31.3029,69.4266 -84.1858,115.651 -152,147.13 -54.6,27.52 -139,37.64 -211,25.29 -129,-22.13 -182.3856,-83.5858 -278.82,-189.42 -319.8442,-394.12412 -412.7872,-348.69185 -515.1964,-287.8839 -59.7073,35.4527 -97.4694,65.6516 -96.9836,91.8839 1.5845,85.5639 331.3842,49.6883 385,548 249.5405,60.0918 402.0388,196.4923 550.32,407 44.42,67 141.3271,298.7003 149.68,336 13.79,48 27.91,110.98 31.5,140.5 90.6578,592.5394 -219.0386,1050.6153 -494.5,782.5 z m 251.97,-1185 c -65.38,-104 -194.81,-239.98 -278.97,-293.1 -57,-35.98 -180.25,-90.9 -204,-90.9 -15.33,0 -27.51,35 -36.53,105 -8.3629,54.7527 17.35,98 30.51,143 32.29,110.46 45.02,236 45.02,444 -5.0708,58.5289 8.9317,252.0381 45.5,394 274.0846,1064.024 847.0114,45.9269 398.47,-702 z M 668.645,2865 c 39.63482,-156.8066 116.55431,-1043.7475 97.855,-1043.5 -33.02389,7.1855 -78.66381,20.65 -122.5,42 -34.77419,18.0794 -146.93114,76.102 -207,127.12 C 298.039,2114.89 202.449,2290 164.391,2490 c -23.028,121 -1.04835,338.3672 7.609,414.2 59.91461,524.8138 371.41813,456.2296 496.645,-39.2 z M 2990,870 c 0,-43 -35.18,-80.32 -73,-77.437 -25,1.902 -32.71,7.468 -35.25,25.437 -5.79,41 7.85,72.039 40.25,91.641 30,18.148 33.13,18.359 50,3.359 10,-8.891 18,-28 18,-43"
       style="fill:#ffffff;fill-opacity:1;fill-rule:nonzero;stroke:none"
       transform="matrix(0.13333333,0,0,-0.13333333,0,492)"
       sodipodi:nodetypes="scsccccccccccccccsccccccssscssscccccccscccscsssccccsccccssssscccsscsscccccsscscccssccscsccsccssccccccscccccsc" />
    <path
       id="path5"
       d="m 1251.8125,1601 c 216.9968,4.2375 210.4186,542.3751 -26.8125,484 -235.18511,-57.8717 -256.11542,-486.3254 26.8125,-484 z M 1258,1850 c -70.7193,-2.525 -65.2728,88.795 -6.8442,94.5051 67.2101,2.6491 72.9175,-91.0216 6.8442,-94.5051 z"
       style="fill:#ffffff;fill-opacity:1;fill-rule:nonzero;stroke:none"
       sodipodi:nodetypes="cscccc"
       transform="matrix(0.13333333,0,0,-0.13333333,0,492)" />
    <path
       id="path6"
       d="m 2259,1582 c 166.344,7.2228 216.7614,111.3461 186,238 -183.621,756.0229 -635.5635,-253.7948 -186,-238 z m 17.0113,268.994 c -64.3985,3.3819 -49.2881,91.8123 -0.975,90.7477 59.2396,-3.4184 61.5578,-85.5999 0.975,-90.7477 z"
       style="fill:#ffffff;fill-opacity:1;fill-rule:nonzero;stroke:none"
       sodipodi:nodetypes="cscccc"
       transform="matrix(0.13333333,0,0,-0.13333333,0,492)" />
    <path
       id="path7"
       d="m 1524,1547 c 154.1684,-91.2827 174.0206,-205.3982 48.3127,-226.7523 -44.6275,-7.5809 -123.7228,-3.6404 -157.4587,25.0255 -26.7219,22.7061 -47.261,55.8031 -77.2557,83.3334 -66.4681,78.643 -182.0501,-7.314 -13.0983,-107.1066 60.0177,-38.1891 87.7189,-49.3984 233,-46.5 43.7874,0.8736 142.6775,59.3577 187.1827,46.7186 90.893,-25.8128 264.1048,-55.0028 395.3173,-21.2186 121.5262,31.2902 126.987,126.765 80,139 -14.355,3.7379 -58.9603,-35.248 -109.4944,-68.43 -41.0926,-26.9824 -119.3553,-53.0631 -167.9652,-46.8722 -115.0863,14.6572 -191.8161,118.6299 -101.1754,185.4272 126.3481,98.5354 91.0104,333.5174 -74.3729,333.647 C 1560.9025,1843.4335 1439.5228,1670.5164 1524,1547 Z"
       style="fill:#ffffff;fill-opacity:1;fill-rule:nonzero;stroke:none"
       transform="matrix(0.13333333,0,0,-0.13333333,0,492)"
       sodipodi:nodetypes="sscsssssscss"
       inkscape:path-effect="#path-effect1"
       inkscape:original-d="m 1524,1547 c 181.8742,-107.6872 176.8181,-247.1513 -33.6291,-228.6066 -77.0798,-2.2785 -100.6494,62.3724 -152.7726,110.2132 -66.4681,78.643 -182.0501,-7.314 -13.0983,-107.1066 60.0177,-38.1891 87.7189,-49.3984 233,-46.5 43.7874,0.8736 142.6775,59.3577 187.1827,46.7186 90.893,-25.8128 264.1048,-55.0028 395.3173,-21.2186 121.5262,31.2902 126.987,126.765 80,139 -21.7509,5.6637 -112.9525,-86.7609 -188.997,-108.4588 -156.6101,-44.6858 -302.2136,95.6217 -189.638,178.5838 126.3481,98.5354 91.0104,333.5174 -74.3729,333.647 C 1560.9025,1843.4335 1439.5228,1670.5164 1524,1547 Z" />
    <path
       id="path8"
       d="m 841,1594 v 0"
       style="fill:#ffffff;fill-opacity:1;fill-rule:nonzero;stroke:none"
       transform="matrix(0.13333333,0,0,-0.13333333,0,492)"
       sodipodi:nodetypes="cc" />
    <path
       id="path11"
       d="m 713,2450 v 0"
       style="fill:#ffffff;fill-opacity:1;fill-rule:nonzero;stroke:none"
       transform="matrix(0.13333333,0,0,-0.13333333,0,492)"
       sodipodi:nodetypes="cc" />
  </g>
</svg>
